<svg width="20" height="20" viewBox="0 0 20 20" fill="none" xmlns="http://www.w3.org/2000/svg">
<path d="M13.2266 18.49V15.9835C13.2594 15.5671 13.2031 15.1485 13.0616 14.7555C12.92 14.3624 12.6965 14.0041 12.4057 13.7042C15.148 13.3985 18.0299 12.3592 18.0299 7.59084C18.0297 6.37152 17.5607 5.19896 16.7199 4.31585C17.1181 3.24909 17.0899 2.06995 16.6413 1.0234C16.6413 1.0234 15.6108 0.717734 13.2266 2.31593C11.225 1.77343 9.11498 1.77343 7.11332 2.31593C4.72913 0.717734 3.6986 1.0234 3.6986 1.0234C3.25004 2.06995 3.22189 3.24909 3.62 4.31585C2.77298 5.20551 2.30347 6.38867 2.31 7.61704C2.31 12.3505 5.19199 13.3898 7.93425 13.7304C7.64692 14.0273 7.42533 14.3813 7.28389 14.7695C7.14245 15.1577 7.08433 15.5714 7.11332 15.9835V18.49" stroke="#AAB5F0" stroke-width="2" stroke-linecap="round" stroke-linejoin="round"/>
<path d="M7.11331 16.7434C4.49332 17.5932 2.30999 16.7434 1 14.1234" stroke="#AAB5F0" stroke-width="2" stroke-linecap="round" stroke-linejoin="round"/>
</svg>
