<svg width="21" height="19" viewBox="0 0 21 19" fill="none" xmlns="http://www.w3.org/2000/svg">
<path d="M13.8333 6.18524C15.292 6.18524 16.691 6.73154 17.7224 7.70397C18.7539 8.6764 19.3333 9.99529 19.3333 11.3705V17.42H15.6667V11.3705C15.6667 10.9121 15.4735 10.4725 15.1297 10.1483C14.7859 9.82418 14.3196 9.64208 13.8333 9.64208C13.3471 9.64208 12.8808 9.82418 12.537 10.1483C12.1932 10.4725 12 10.9121 12 11.3705V17.42H8.33333V11.3705C8.33333 9.99529 8.9128 8.6764 9.94425 7.70397C10.9757 6.73154 12.3746 6.18524 13.8333 6.18524ZM1 7.04945H4.66667V17.42H1V7.04945Z" stroke="#AAB5F0" stroke-width="2" stroke-linecap="round" stroke-linejoin="round"/>
<path d="M2.83333 4.45684C3.84586 4.45684 4.66667 3.683 4.66667 2.72842C4.66667 1.77384 3.84586 1 2.83333 1C1.82081 1 1 1.77384 1 2.72842C1 3.683 1.82081 4.45684 2.83333 4.45684Z" stroke="#AAB5F0" stroke-width="2" stroke-linecap="round" stroke-linejoin="round"/>
</svg>
